<?xml version="1.0" encoding="utf-8"?>
<!-- Generator: Adobe Illustrator 16.0.0, SVG Export Plug-In . SVG Version: 6.00 Build 0)  -->
<!DOCTYPE svg PUBLIC "-//W3C//DTD SVG 1.1//EN" "http://www.w3.org/Graphics/SVG/1.1/DTD/svg11.dtd">
<svg version="1.1" id="Capa_1" xmlns="http://www.w3.org/2000/svg" xmlns:xlink="http://www.w3.org/1999/xlink" x="0px" y="0px"
	 width="50.229px" height="50px" viewBox="10.362 98.926 50.229 50" enable-background="new 10.362 98.926 50.229 50"
	 xml:space="preserve">
<g>
	<path fill-rule="evenodd" clip-rule="evenodd" fill="#FFFFFF" d="M33.094,99.062c0,0.914,0.004,1.826,0,2.737
		c-0.022,4.859-0.078,9.717-0.045,14.576c0.007,0.994-0.309,1.452-1.239,1.765c-2.514,0.841-4.994,1.783-7.47,3.048
		c2.539,0.918,5.094,1.793,7.602,2.789c0.467,0.186,1.056,0.85,1.06,1.298c0.063,7.654,0.044,15.308,0.037,22.962
		c0,0.153-0.087,0.308-0.13,0.454c-11.056,0.734-22.59-11.954-22.545-24.773C10.411,109.813,22.103,99.305,33.094,99.062z
		 M28.41,143.019c0-5.031,0.018-9.886-0.036-14.739c-0.004-0.35-0.457-0.876-0.817-1.012c-3.321-1.25-6.653-2.475-10.013-3.615
		c-1.396-0.474-2.553,0.425-2.516,1.772C15.224,132.729,21.131,140.63,28.41,143.019z M15.801,119.02
		c4.008-1.438,7.866-2.787,11.684-4.24c0.448-0.17,0.937-0.9,0.964-1.396c0.13-2.396,0.125-4.801,0.123-7.202
		c0-0.436-0.212-0.87-0.32-1.281C23.162,105.704,16.206,113.35,15.801,119.02z"/>
	<path fill-rule="evenodd" clip-rule="evenodd" fill="#FFFFFF" d="M42.591,142.854c8.114-1.557,15.258-13.795,12.96-22.237
		c-2.809,0.995-5.61,1.986-8.401,2.976c-0.098-0.248-0.164-0.344-0.171-0.443c-0.305-4.254-0.302-4.253,3.751-5.687
		c2.617-0.927,5.233-1.856,8.039-2.853c2.787,7.573,2.443,14.825-1.495,21.725c-4.209,7.373-10.741,11.393-19.287,12.592
		c0-16.714,0-33.234,0-50c0.933,0.142,1.842,0.185,2.694,0.428c3.496,0.993,6.967,2.093,9.84,4.435
		c0.487,0.396,0.826,1.213,0.877,1.862c0.122,1.625,0.04,3.266,0.04,5.135c-2.622-2.51-4.993-5.123-8.847-5.921
		C42.591,117.574,42.591,130.2,42.591,142.854z"/>
</g>
</svg>
